<svg version="1.1" id="Layer_1" xmlns="http://www.w3.org/2000/svg" xmlns:xlink="http://www.w3.org/1999/xlink" x="0px" y="0px"
	 width="100%" viewBox="0 0 1024 304" enable-background="new 0 0 1024 304" xml:space="preserve">
<path fill="#000000" opacity="1.000000" stroke="none" 
	d="
M474.999451,155.891510 
	C520.800476,154.729294 566.118225,154.432480 611.422485,153.553085 
	C648.218323,152.838867 685.016296,151.688980 721.803772,150.501007 
	C761.945312,149.204727 802.083374,148.629364 842.240479,148.559814 
	C866.719910,148.517410 891.198914,148.011200 915.542847,144.946030 
	C917.680725,144.676849 919.872192,144.760376 922.037109,144.792389 
	C929.968018,144.909622 935.996765,150.075729 936.940308,157.506409 
	C937.750671,163.889313 932.680603,170.223099 925.093933,172.045258 
	C915.653564,174.312592 905.958496,174.549408 896.342285,175.143036 
	C858.120422,177.502533 819.872009,179.360382 781.775574,183.550583 
	C761.094177,185.825317 740.305481,187.036163 719.528625,188.312439 
	C668.437744,191.450806 617.275818,190.583847 566.146484,191.575302 
	C530.333801,192.269775 494.526489,192.861084 458.711426,192.844681 
	C429.218903,192.831177 399.716431,192.831345 370.238037,192.066879 
	C352.882294,191.616776 335.771729,188.654266 319.676880,181.563507 
	C310.417572,177.484207 303.701965,170.753357 299.968994,161.324585 
	C297.682556,155.549576 293.595001,153.361267 287.570496,153.283524 
	C264.291138,152.983170 241.428650,156.598526 218.558197,160.243317 
	C186.346985,165.376709 154.081940,170.199265 122.215477,177.285629 
	C109.541733,180.103973 96.879044,182.987152 84.150063,185.534714 
	C78.952812,186.574905 73.637901,187.477798 68.285461,187.105637 
	C64.340729,186.831375 60.373322,185.988770 59.621883,181.187469 
	C58.872562,176.399673 62.534424,174.799484 66.116257,173.708267 
	C82.370689,168.756287 99.058311,165.501999 115.501106,161.286469 
	C156.036057,150.894302 197.243286,144.226532 238.691483,138.897308 
	C256.853088,136.562195 275.023651,134.258820 293.232788,132.346970 
	C302.598114,131.363663 310.991852,134.366409 316.309662,142.442566 
	C321.009705,149.580429 327.465424,153.074356 335.437195,154.752075 
	C349.026855,157.612137 362.861084,158.308777 376.640259,158.855652 
	C404.471802,159.960220 432.250854,158.159836 460.008148,156.170395 
	C464.820801,155.825439 469.668854,155.974396 474.999451,155.891510 
z"/>
</svg>